<svg aria-hidden="true" style="position: absolute; width: 0; height: 0; overflow: hidden;" version="1.1" xmlns="http://www.w3.org/2000/svg" xmlns:xlink="http://www.w3.org/1999/xlink">
<defs>
<symbol id="icon-logo-1" viewBox="0 0 29 32">
<path style="fill: var(--color1, #afb1b8)" d="M3.986 0.37l4.624 4.386h12.898v12.234l4.624 4.386v-21.005h-22.145z"></path>
<path style="fill: var(--color1, #afb1b8)" d="M0.189 4.57v20.405h21.513v-8.111l-12.956-12.289-8.556-0.005zM17.604 21.991h-14.011v-13.724h0.99v12.794h13.020v0.929z"></path>
<path style="fill: var(--color1, #afb1b8)" d="M6.307 28.597l0.476-0.98h0.398l-0.693 1.307v0.761h-0.361v-0.761l-0.695-1.307h0.399l0.476 0.98zM8.349 29.204h-0.801l-0.168 0.482h-0.374l0.781-2.068h0.322l0.783 2.068h-0.375l-0.169-0.482zM7.649 28.914h0.599l-0.3-0.858-0.3 0.858zM9.766 29.127c0-0.096 0.026-0.183 0.078-0.263 0.052-0.081 0.155-0.176 0.308-0.286-0.080-0.101-0.137-0.187-0.169-0.259s-0.047-0.14-0.047-0.206c0-0.162 0.049-0.29 0.148-0.384s0.231-0.142 0.398-0.142c0.151 0 0.274 0.044 0.369 0.134 0.097 0.088 0.145 0.197 0.145 0.328 0 0.086-0.022 0.166-0.065 0.239s-0.115 0.144-0.214 0.216l-0.141 0.102 0.399 0.472c0.058-0.114 0.087-0.24 0.087-0.379h0.3c0 0.255-0.060 0.464-0.179 0.626l0.304 0.359h-0.401l-0.116-0.138c-0.148 0.111-0.324 0.166-0.528 0.166s-0.368-0.054-0.491-0.162c-0.122-0.109-0.183-0.25-0.183-0.425zM10.45 29.438c0.116 0 0.225-0.039 0.327-0.116l-0.452-0.533-0.044 0.031c-0.114 0.086-0.17 0.185-0.17 0.295 0 0.096 0.031 0.173 0.092 0.233s0.144 0.089 0.247 0.089zM10.26 28.106c0 0.080 0.049 0.18 0.146 0.3l0.158-0.108 0.044-0.035c0.059-0.052 0.088-0.119 0.088-0.2 0-0.054-0.020-0.1-0.061-0.138s-0.092-0.058-0.155-0.058c-0.067 0-0.121 0.023-0.161 0.068s-0.060 0.103-0.060 0.172zM14.017 29.012c-0.021 0.221-0.102 0.393-0.244 0.517s-0.331 0.185-0.567 0.185c-0.165 0-0.31-0.039-0.436-0.116s-0.222-0.19-0.29-0.334-0.104-0.311-0.107-0.501v-0.193c0-0.195 0.035-0.367 0.104-0.516s0.168-0.263 0.297-0.344c0.13-0.081 0.279-0.121 0.449-0.121 0.228 0 0.412 0.062 0.551 0.186s0.22 0.299 0.243 0.526h-0.358c-0.017-0.149-0.061-0.256-0.131-0.321s-0.171-0.099-0.305-0.099c-0.156 0-0.277 0.057-0.361 0.172-0.083 0.114-0.126 0.281-0.128 0.501v0.183c0 0.223 0.040 0.394 0.119 0.511s0.198 0.176 0.352 0.176c0.141 0 0.247-0.032 0.318-0.095s0.116-0.169 0.135-0.317h0.358zM15.99 28.705c0 0.203-0.035 0.381-0.105 0.534s-0.17 0.27-0.301 0.352c-0.13 0.081-0.279 0.122-0.449 0.122-0.168 0-0.317-0.041-0.449-0.122s-0.232-0.199-0.304-0.351c-0.071-0.151-0.107-0.326-0.108-0.524v-0.116c0-0.202 0.036-0.38 0.107-0.534s0.173-0.272 0.303-0.354c0.131-0.082 0.28-0.124 0.449-0.124s0.318 0.041 0.447 0.122c0.131 0.081 0.232 0.197 0.303 0.349s0.107 0.328 0.108 0.53v0.115zM15.631 28.597c0-0.229-0.044-0.405-0.131-0.527-0.086-0.122-0.209-0.183-0.368-0.183-0.155 0-0.277 0.061-0.365 0.183-0.087 0.121-0.132 0.293-0.134 0.516v0.119c0 0.227 0.044 0.403 0.132 0.527s0.212 0.186 0.369 0.186c0.159 0 0.281-0.061 0.367-0.182s0.129-0.298 0.129-0.531v-0.108z"></path>
</symbol>
<symbol id="icon-logo-2" viewBox="0 0 25 32">
<path style="fill: var(--color1, #afb1b8)" d="M10.447 1.806h0.084c0.156 0 0.324 0.016 0.49 0.030 0.734 0.052 1.463 0.162 2.179 0.329v-1.762c-0.738-0.185-1.491-0.305-2.25-0.358-0.288-0.022-0.595-0.036-0.909-0.044h-0.263c-1.523 0.006-3.039 0.201-4.515 0.582-1.68 0.419-3.293 1.075-4.79 1.948v17.475c1.442-0.783 2.976-1.381 4.566-1.779 1.256-0.32 2.539-0.517 3.833-0.588h0.051c0.216-0.011 0.433-0.017 0.655-0.019v-1.79c-1.681 0.022-3.353 0.244-4.982 0.662-0.602 0.157-1.185 0.325-1.731 0.513l-0.623 0.211v-13.625l0.266-0.128c2.032-0.963 4.229-1.524 6.471-1.651 0.019-0.001 0.037-0.001 0.056 0 0.248-0.013 0.497-0.019 0.741-0.019h0.28c0.129 0.003 0.258 0.006 0.388 0.014z"></path>
<path style="fill: var(--color1, #afb1b8)" d="M14.838 3.651c-0.409 0-0.814-0.014-1.205-0.044-0.467-0.034-0.947-0.091-1.401-0.167-0.277-0.047-0.55-0.103-0.814-0.164v17.275c1.12 0.277 2.271 0.413 3.425 0.404 1.523-0.006 3.039-0.201 4.515-0.581 1.68-0.42 3.294-1.075 4.792-1.948v-17.163c-1.441 0.783-2.975 1.381-4.564 1.781-1.551 0.398-3.145 0.603-4.747 0.609zM21.745 3.95l0.623-0.21v13.63l-0.266 0.128c-1.021 0.486-2.087 0.869-3.184 1.144-1.331 0.344-2.7 0.522-4.074 0.527-0.411 0-0.819-0.017-1.214-0.052l-0.427-0.038v-14.017l0.497 0.033c0.361 0.023 0.735 0.034 1.141 0.034 1.745-0.006 3.482-0.229 5.173-0.663 0.581-0.153 1.158-0.325 1.731-0.518z"></path>
<path style="fill: var(--color1, #afb1b8)" d="M1.684 25.977c-0.090-0.093-0.197-0.166-0.317-0.214s-0.247-0.071-0.376-0.066c-0.137-0.002-0.273 0.024-0.4 0.075-0.117 0.046-0.222 0.116-0.311 0.205s-0.156 0.196-0.201 0.313c-0.049 0.123-0.073 0.254-0.072 0.387v2.335c-0.006 0.165 0.026 0.328 0.092 0.479 0.055 0.12 0.135 0.226 0.233 0.313 0.093 0.079 0.203 0.135 0.321 0.166 0.114 0.032 0.231 0.048 0.349 0.049 0.13 0.001 0.259-0.027 0.377-0.081 0.117-0.051 0.222-0.124 0.311-0.216 0.087-0.091 0.156-0.197 0.204-0.313 0.050-0.118 0.075-0.244 0.075-0.372v-0.261h-0.61v0.208c0.002 0.071-0.010 0.142-0.036 0.208-0.020 0.050-0.050 0.095-0.089 0.131-0.038 0.031-0.081 0.053-0.128 0.067-0.041 0.014-0.084 0.021-0.128 0.022-0.054 0.006-0.11-0.002-0.16-0.024s-0.094-0.057-0.126-0.101c-0.058-0.094-0.086-0.203-0.081-0.313v-2.177c-0.004-0.121 0.022-0.241 0.075-0.349 0.032-0.049 0.077-0.089 0.129-0.114s0.112-0.034 0.17-0.027c0.053-0.002 0.105 0.009 0.152 0.032s0.089 0.057 0.12 0.099c0.068 0.090 0.104 0.2 0.101 0.313v0.202h0.604v-0.238c0.001-0.14-0.024-0.278-0.075-0.408-0.045-0.122-0.114-0.234-0.204-0.329z"></path>
<path style="fill: var(--color1, #afb1b8)" d="M5.31 25.95c-0.195-0.164-0.44-0.255-0.694-0.257-0.124 0.001-0.248 0.023-0.364 0.066-0.119 0.043-0.228 0.107-0.322 0.191-0.101 0.091-0.182 0.202-0.237 0.327-0.061 0.143-0.092 0.297-0.089 0.452v2.239c-0.004 0.158 0.026 0.314 0.089 0.459 0.055 0.12 0.136 0.227 0.237 0.313 0.093 0.087 0.203 0.154 0.322 0.197 0.117 0.043 0.24 0.065 0.364 0.066s0.248-0.022 0.364-0.066c0.121-0.044 0.233-0.111 0.33-0.197 0.097-0.087 0.176-0.194 0.23-0.313 0.063-0.144 0.093-0.301 0.089-0.459v-2.239c0.003-0.155-0.027-0.31-0.089-0.452-0.054-0.123-0.133-0.235-0.23-0.327zM5.025 28.969c0.005 0.060-0.003 0.12-0.024 0.176s-0.054 0.107-0.097 0.148c-0.081 0.068-0.182 0.105-0.287 0.105s-0.207-0.037-0.287-0.105c-0.043-0.041-0.076-0.092-0.097-0.148s-0.029-0.116-0.024-0.176v-2.239c-0.005-0.060 0.003-0.12 0.024-0.176s0.054-0.107 0.097-0.148c0.081-0.068 0.182-0.105 0.287-0.105s0.207 0.037 0.287 0.105c0.043 0.041 0.076 0.092 0.097 0.148s0.029 0.116 0.024 0.176v2.239z"></path>
<path style="fill: var(--color1, #afb1b8)" d="M10.072 29.969v-4.239h-0.587l-0.771 2.244h-0.011l-0.777-2.244h-0.581v4.239h0.606v-2.579h0.011l0.593 1.823h0.302l0.598-1.823h0.011v2.579h0.606z"></path>
<path style="fill: var(--color1, #afb1b8)" d="M13.513 26.027c-0.093-0.105-0.211-0.184-0.343-0.232-0.142-0.046-0.29-0.068-0.439-0.066h-0.9v4.239h0.604v-1.656h0.311c0.188 0.009 0.376-0.031 0.545-0.116 0.137-0.076 0.252-0.188 0.332-0.324 0.070-0.113 0.117-0.238 0.139-0.369 0.024-0.16 0.035-0.321 0.033-0.482 0.006-0.204-0.014-0.407-0.059-0.606-0.040-0.147-0.117-0.281-0.223-0.39zM13.201 27.319c-0.003 0.077-0.022 0.152-0.056 0.221-0.035 0.065-0.089 0.117-0.156 0.149-0.089 0.040-0.187 0.058-0.285 0.053h-0.276v-1.441h0.311c0.094-0.005 0.187 0.014 0.272 0.053 0.062 0.036 0.112 0.091 0.142 0.157 0.033 0.074 0.051 0.155 0.053 0.236 0 0.089 0 0.183 0 0.282s0.006 0.2 0 0.291h-0.006z"></path>
<path style="fill: var(--color1, #afb1b8)" d="M16.374 25.73h-0.495l-0.934 4.239h0.604l0.177-0.911h0.824l0.177 0.911h0.604l-0.957-4.239zM15.816 28.481l0.297-1.537h0.011l0.296 1.537h-0.604z"></path>
<path style="fill: var(--color1, #afb1b8)" d="M20.277 28.283h-0.011l-0.912-2.554h-0.581v4.239h0.604v-2.549h0.012l0.923 2.549h0.568v-4.239h-0.604v2.554z"></path>
<path style="fill: var(--color1, #afb1b8)" d="M23.968 25.73l-0.486 1.685h-0.012l-0.486-1.685h-0.64l0.83 2.447v1.792h0.604v-1.792l0.83-2.447h-0.64z"></path>
<path style="fill: var(--color1, #afb1b8)" d="M0 31.166h0.291v0.817h0.198v-0.817h0.29v-0.167h-0.778v0.167z"></path>
<path style="fill: var(--color1, #afb1b8)" d="M2.447 30.998l-0.381 0.984h0.21l0.081-0.224h0.392l0.084 0.224h0.215l-0.391-0.984h-0.21zM2.416 31.593l0.134-0.365 0.134 0.365h-0.268z"></path>
<path style="fill: var(--color1, #afb1b8)" d="M4.866 31.62h0.227v0.127c-0.066 0.053-0.149 0.082-0.234 0.083-0.040 0.002-0.079-0.005-0.116-0.021s-0.068-0.041-0.093-0.072c-0.052-0.075-0.078-0.165-0.073-0.257 0-0.219 0.095-0.329 0.283-0.329 0.050-0.005 0.099 0.008 0.14 0.037s0.070 0.071 0.082 0.12l0.195-0.038c-0.042-0.192-0.181-0.289-0.417-0.289-0.127-0.003-0.25 0.042-0.344 0.127-0.050 0.049-0.088 0.108-0.112 0.174s-0.034 0.135-0.029 0.205c-0.006 0.135 0.039 0.267 0.126 0.369 0.048 0.050 0.107 0.088 0.171 0.113s0.134 0.035 0.203 0.031c0.154 0.004 0.304-0.052 0.417-0.157v-0.388h-0.427v0.166z"></path>
<path style="fill: var(--color1, #afb1b8)" d="M7.337 30.998h-0.199v0.984h0.69v-0.167h-0.49v-0.817z"></path>
<path style="fill: var(--color1, #afb1b8)" d="M9.426 30.998h-0.199v0.984h0.199v-0.984z"></path>
<path style="fill: var(--color1, #afb1b8)" d="M11.469 31.656l-0.403-0.657h-0.193v0.984h0.185v-0.643l0.395 0.643h0.198v-0.984h-0.182v0.657z"></path>
<path style="fill: var(--color1, #afb1b8)" d="M13.315 31.549h0.49v-0.167h-0.49v-0.216h0.528v-0.167h-0.727v0.984h0.747v-0.167h-0.548v-0.266z"></path>
<path style="fill: var(--color1, #afb1b8)" d="M17.792 31.387h-0.388v-0.388h-0.198v0.984h0.198v-0.43h0.388v0.43h0.198v-0.984h-0.198v0.388z"></path>
<path style="fill: var(--color1, #afb1b8)" d="M19.649 31.549h0.492v-0.167h-0.492v-0.216h0.529v-0.167h-0.727v0.984h0.746v-0.167h-0.548v-0.266z"></path>
<path style="fill: var(--color1, #afb1b8)" d="M22.168 31.549c0.171-0.027 0.258-0.117 0.258-0.274 0.005-0.042-0.001-0.084-0.018-0.123s-0.044-0.072-0.078-0.096c-0.089-0.045-0.189-0.065-0.288-0.058h-0.417v0.984h0.198v-0.412h0.039c0.042-0.003 0.084 0.005 0.123 0.022 0.029 0.018 0.053 0.043 0.070 0.072l0.215 0.313h0.237l-0.12-0.192c-0.053-0.095-0.128-0.176-0.218-0.236zM21.969 31.413h-0.146v-0.247h0.156c0.068-0.006 0.136 0.002 0.201 0.023 0.014 0.013 0.026 0.029 0.033 0.046s0.011 0.037 0.010 0.056c-0.001 0.019-0.006 0.038-0.015 0.055s-0.022 0.032-0.037 0.043c-0.065 0.020-0.133 0.028-0.201 0.023z"></path>
<path style="fill: var(--color1, #afb1b8)" d="M24.067 31.549h0.49v-0.167h-0.49v-0.216h0.529v-0.167h-0.729v0.984h0.747v-0.167h-0.548v-0.266z"></path>
</symbol>
<symbol id="icon-logo-3" viewBox="0 0 31 32">
<path style="fill: var(--color1, #afb1b8)" d="M4.934 31.022c0.011 0 0.022 0.003 0.032 0.007s0.019 0.010 0.026 0.018l0.149 0.157c-0.116 0.127-0.259 0.228-0.42 0.297-0.188 0.075-0.391 0.112-0.595 0.107-0.192 0.004-0.382-0.030-0.559-0.1-0.16-0.064-0.304-0.16-0.421-0.281-0.12-0.126-0.213-0.274-0.272-0.434-0.065-0.179-0.097-0.368-0.095-0.557-0.003-0.191 0.032-0.38 0.103-0.559 0.065-0.162 0.163-0.309 0.289-0.434 0.127-0.123 0.28-0.219 0.448-0.283 0.184-0.068 0.379-0.102 0.576-0.1 0.183-0.004 0.365 0.027 0.535 0.091 0.148 0.061 0.283 0.146 0.401 0.251l-0.125 0.167c-0.009 0.012-0.019 0.022-0.032 0.030-0.015 0.010-0.033 0.014-0.050 0.012-0.019-0.001-0.038-0.007-0.054-0.018l-0.067-0.044-0.093-0.057c-0.040-0.021-0.082-0.040-0.125-0.055-0.055-0.019-0.112-0.034-0.17-0.044-0.073-0.013-0.147-0.019-0.222-0.018-0.142-0.002-0.283 0.024-0.414 0.075-0.123 0.047-0.233 0.119-0.324 0.21-0.093 0.097-0.165 0.211-0.211 0.335-0.053 0.142-0.078 0.291-0.076 0.442-0.002 0.153 0.024 0.305 0.076 0.449 0.046 0.123 0.116 0.236 0.207 0.333 0.085 0.090 0.191 0.161 0.31 0.207 0.122 0.048 0.252 0.072 0.384 0.071 0.076 0.001 0.152-0.004 0.228-0.014 0.123-0.014 0.241-0.055 0.345-0.119 0.052-0.033 0.101-0.070 0.147-0.11 0.019-0.017 0.044-0.028 0.071-0.029z"></path>
<path style="fill: var(--color1, #afb1b8)" d="M9.241 30.235c0.002 0.189-0.032 0.377-0.101 0.554-0.061 0.161-0.157 0.307-0.281 0.43s-0.275 0.219-0.441 0.282c-0.365 0.133-0.769 0.133-1.134 0-0.165-0.064-0.314-0.161-0.438-0.283-0.124-0.125-0.221-0.273-0.283-0.434-0.134-0.359-0.134-0.751 0-1.109 0.064-0.162 0.16-0.31 0.283-0.436 0.125-0.119 0.274-0.211 0.438-0.272 0.365-0.135 0.769-0.135 1.134 0 0.166 0.064 0.315 0.161 0.44 0.283 0.123 0.124 0.218 0.27 0.282 0.429 0.069 0.178 0.103 0.367 0.101 0.557zM8.85 30.235c0.003-0.151-0.021-0.302-0.071-0.445-0.042-0.123-0.11-0.236-0.2-0.333-0.087-0.091-0.195-0.163-0.315-0.21-0.265-0.097-0.559-0.097-0.824 0-0.12 0.047-0.228 0.119-0.315 0.21-0.091 0.096-0.16 0.21-0.201 0.333-0.095 0.29-0.095 0.6 0 0.89 0.042 0.123 0.111 0.237 0.201 0.333 0.088 0.091 0.195 0.162 0.315 0.208 0.266 0.095 0.559 0.095 0.824 0 0.12-0.046 0.228-0.117 0.315-0.208 0.089-0.097 0.157-0.21 0.2-0.333 0.050-0.143 0.074-0.294 0.071-0.445z"></path>
<path style="fill: var(--color1, #afb1b8)" d="M12.18 30.702l0.039 0.1c0.015-0.036 0.028-0.068 0.043-0.1 0.014-0.033 0.030-0.066 0.048-0.098l0.953-1.654c0.019-0.028 0.035-0.046 0.054-0.052 0.025-0.007 0.052-0.010 0.078-0.009h0.282v2.69h-0.334v-1.978c0-0.025 0-0.053 0-0.084-0.002-0.031-0.002-0.062 0-0.093l-0.958 1.677c-0.012 0.025-0.032 0.046-0.056 0.061s-0.053 0.023-0.082 0.022h-0.054c-0.029 0-0.058-0.007-0.082-0.022s-0.044-0.036-0.056-0.061l-0.987-1.688c0 0.032 0 0.064 0 0.096s0 0.061 0 0.085v1.978h-0.323v-2.684h0.282c0.026-0.001 0.053 0.002 0.078 0.009 0.023 0.011 0.042 0.029 0.052 0.052l0.973 1.655c0.019 0.031 0.035 0.063 0.048 0.096z"></path>
<path style="fill: var(--color1, #afb1b8)" d="M15.767 30.568v1.007h-0.373v-2.686h0.832c0.157-0.003 0.314 0.017 0.464 0.059 0.121 0.033 0.233 0.090 0.328 0.167 0.083 0.073 0.147 0.163 0.187 0.263 0.044 0.11 0.066 0.226 0.063 0.344 0.002 0.118-0.022 0.235-0.069 0.344-0.045 0.103-0.114 0.195-0.201 0.269-0.096 0.081-0.208 0.141-0.33 0.178-0.145 0.044-0.297 0.065-0.449 0.062l-0.451-0.007zM15.767 30.28h0.451c0.098 0.001 0.196-0.013 0.289-0.041 0.077-0.025 0.148-0.064 0.209-0.116 0.056-0.049 0.099-0.11 0.127-0.178 0.031-0.072 0.046-0.149 0.045-0.226 0.004-0.075-0.008-0.149-0.037-0.219s-0.073-0.132-0.13-0.183c-0.142-0.106-0.321-0.158-0.502-0.144h-0.451v1.107z"></path>
<path style="fill: var(--color1, #afb1b8)" d="M20.779 31.579h-0.295c-0.030 0.001-0.059-0.008-0.082-0.025-0.021-0.017-0.038-0.038-0.048-0.062l-0.254-0.65h-1.274l-0.263 0.65c-0.010 0.024-0.026 0.045-0.047 0.061-0.024 0.018-0.053 0.028-0.084 0.027h-0.295l1.119-2.69h0.388l1.134 2.69zM18.933 30.58h1.052l-0.444-1.095c-0.034-0.082-0.062-0.167-0.084-0.253l-0.043 0.141c-0.013 0.043-0.028 0.082-0.041 0.114l-0.44 1.093z"></path>
<path style="fill: var(--color1, #afb1b8)" d="M22.39 28.902c0.022 0.012 0.041 0.028 0.056 0.048l1.632 2.028c0-0.032 0-0.064 0-0.094s0-0.061 0-0.089v-1.905h0.334v2.69h-0.186c-0.026 0.001-0.053-0.005-0.076-0.016-0.023-0.013-0.043-0.030-0.060-0.050l-1.63-2.026c0.002 0.031 0.002 0.062 0 0.093 0 0.030 0 0.057 0 0.082v1.917h-0.334v-2.69h0.198c0.023-0.001 0.046 0.004 0.067 0.012z"></path>
<path style="fill: var(--color1, #afb1b8)" d="M27.161 30.509v1.068h-0.373v-1.068l-1.031-1.62h0.334c0.029-0.002 0.057 0.007 0.080 0.023 0.020 0.017 0.037 0.038 0.050 0.061l0.645 1.045c0.026 0.044 0.049 0.085 0.067 0.125s0.034 0.077 0.047 0.114l0.048-0.116c0.018-0.042 0.039-0.083 0.063-0.123l0.636-1.052c0.013-0.021 0.030-0.040 0.048-0.057 0.022-0.018 0.051-0.028 0.080-0.027h0.338l-1.033 1.627z"></path>
<path style="fill: var(--color1, #afb1b8)" d="M11.996 24.375c0.162 0.020 0.326 0.036 0.492 0.050 2.516-1.074 4.645-2.833 6.12-5.056s2.231-4.811 2.173-7.442l-2.773-2.647c0.564 2.801 0.3 5.696-0.762 8.362s-2.88 4.997-5.25 6.733z"></path>
<path style="fill: var(--color1, #afb1b8)" d="M11.006 24.252l0.075 0.014c2.533-1.73 4.465-4.145 5.545-6.934s1.258-5.823 0.512-8.709l-3.95-3.77c1.598 3.099 2.241 6.567 1.854 10.001s-1.786 6.693-4.036 9.398z"></path>
<path style="fill: var(--color1, #afb1b8)" d="M24.401 15.035c-0.671 2.891-2.301 5.497-4.647 7.434-0.685 0.569-1.424 1.075-2.208 1.513 1.911-0.536 3.667-1.484 5.133-2.77s2.603-2.877 3.324-4.649l-1.602-1.527z"></path>
<path style="fill: var(--color1, #afb1b8)" d="M23.772 14.61l-2.281-2.177c-0.044 2.482-0.783 4.908-2.141 7.025s-3.285 3.848-5.581 5.014h0.011c0.512-0 1.023-0.029 1.531-0.087 2.146-0.836 4.042-2.166 5.518-3.872s2.487-3.733 2.943-5.903z"></path>
<path style="fill: var(--color1, #afb1b8)" d="M11.336 3.263l-2.721-2.601c-2.432 0.897-4.524 2.474-6.002 4.525s-2.272 4.48-2.28 6.969v0c0.009 2.75 0.979 5.419 2.756 7.584s4.26 3.703 7.055 4.369c2.495-2.902 3.956-6.488 4.171-10.237s-0.829-7.465-2.979-10.61z"></path>
<path style="fill: var(--color1, #afb1b8)" d="M30.058 14.209c-0.010-3.263-1.372-6.39-3.789-8.697s-5.693-3.608-9.111-3.617c-1.58-0.002-3.146 0.277-4.619 0.821l16.658 15.902c0.57-1.406 0.863-2.9 0.862-4.407z"></path>
</symbol>
<symbol id="icon-logo-4" viewBox="0 0 59 32">
<path style="fill: var(--color2, #2196f3)" d="M9.353 10.195h-0.002c-1.675 0-3.033 1.326-3.033 2.961v0.002c0 1.635 1.358 2.961 3.033 2.961h0.002c1.675 0 3.033-1.326 3.033-2.961v-0.002c0-1.635-1.358-2.961-3.033-2.961z"></path>
<path style="fill: var(--color2, #2196f3)" d="M31.74 9.248c-0.005-2.272-0.931-4.449-2.576-6.055s-3.875-2.511-6.201-2.516v0c-2.327 0.004-4.558 0.908-6.204 2.515s-2.573 3.784-2.577 6.057v12.527c0 0 17.556-1.909 17.558-12.525v-0.002z"></path>
<path style="fill: var(--color2, #2196f3)" d="M0.17 25.887c0.004 1.581 0.649 3.095 1.794 4.213s2.696 1.748 4.314 1.753c1.618-0.005 3.169-0.634 4.314-1.752s1.789-2.632 1.794-4.212v-8.716c0 0-12.216 1.329-12.216 8.714zM6.278 27.448c-0.316 0-0.626-0.092-0.889-0.263s-0.468-0.416-0.589-0.701-0.153-0.599-0.091-0.902c0.062-0.303 0.214-0.581 0.438-0.8s0.509-0.367 0.819-0.427c0.31-0.060 0.632-0.029 0.924 0.089s0.542 0.318 0.718 0.575c0.176 0.257 0.27 0.559 0.27 0.868 0.001 0.206-0.040 0.409-0.12 0.599s-0.198 0.363-0.346 0.509c-0.149 0.146-0.325 0.261-0.52 0.34s-0.403 0.119-0.613 0.119v-0.006z"></path>
<path style="fill: var(--color2, #2196f3)" d="M18.571 26.22h-1.149v1.187h-0.598v-2.904h1.891v0.485h-1.293v0.75h1.149v0.483zM21.448 26.020c0 0.286-0.051 0.537-0.152 0.752s-0.246 0.382-0.435 0.499c-0.187 0.117-0.403 0.176-0.646 0.176-0.241 0-0.455-0.058-0.644-0.174s-0.335-0.281-0.439-0.495c-0.104-0.215-0.156-0.463-0.158-0.742v-0.144c0-0.286 0.051-0.537 0.154-0.754 0.104-0.218 0.249-0.385 0.437-0.501 0.189-0.117 0.404-0.176 0.646-0.176s0.457 0.058 0.644 0.176c0.189 0.116 0.334 0.283 0.437 0.501 0.104 0.217 0.156 0.467 0.156 0.752v0.13zM20.841 25.889c0-0.304-0.055-0.536-0.164-0.694s-0.265-0.237-0.467-0.237c-0.201 0-0.356 0.078-0.465 0.235-0.109 0.156-0.164 0.384-0.166 0.686v0.142c0 0.297 0.055 0.527 0.164 0.69s0.266 0.245 0.471 0.245c0.201 0 0.355-0.078 0.463-0.235 0.108-0.158 0.162-0.388 0.164-0.69v-0.142zM23.388 26.645c0-0.113-0.040-0.2-0.12-0.259-0.080-0.061-0.223-0.125-0.431-0.191-0.207-0.068-0.372-0.134-0.493-0.2-0.33-0.178-0.495-0.418-0.495-0.72 0-0.157 0.044-0.297 0.132-0.419 0.089-0.124 0.216-0.22 0.381-0.289 0.166-0.069 0.352-0.104 0.558-0.104 0.207 0 0.392 0.038 0.555 0.114 0.162 0.075 0.288 0.18 0.377 0.317 0.090 0.137 0.136 0.293 0.136 0.467h-0.598c0-0.133-0.042-0.236-0.126-0.309-0.084-0.075-0.201-0.112-0.353-0.112-0.146 0-0.26 0.031-0.341 0.094-0.081 0.061-0.122 0.142-0.122 0.243 0 0.094 0.047 0.174 0.142 0.237 0.096 0.064 0.236 0.124 0.421 0.18 0.34 0.102 0.588 0.229 0.744 0.381s0.233 0.34 0.233 0.566c0 0.251-0.095 0.449-0.285 0.592-0.19 0.142-0.446 0.213-0.768 0.213-0.223 0-0.427-0.041-0.61-0.122-0.183-0.082-0.324-0.195-0.421-0.337-0.096-0.142-0.144-0.307-0.144-0.495h0.6c0 0.32 0.191 0.481 0.574 0.481 0.142 0 0.253-0.029 0.333-0.086 0.080-0.058 0.12-0.14 0.12-0.243zM26.582 24.987h-0.89v2.42h-0.598v-2.42h-0.878v-0.485h2.366v0.485zM28.672 26.148h-1.149v0.778h1.348v0.481h-1.947v-2.904h1.943v0.485h-1.344v0.692h1.149v0.469zM30.298 26.343h-0.477v1.063h-0.598v-2.904h1.079c0.343 0 0.608 0.076 0.794 0.229s0.279 0.369 0.279 0.648c0 0.198-0.043 0.364-0.13 0.497-0.085 0.132-0.215 0.237-0.389 0.315l0.628 1.187v0.028h-0.642l-0.545-1.063zM29.821 25.859h0.483c0.15 0 0.267-0.038 0.349-0.114 0.082-0.077 0.124-0.183 0.124-0.317 0-0.137-0.039-0.245-0.118-0.323-0.077-0.078-0.196-0.118-0.357-0.118h-0.481v0.872zM33.447 26.383v1.023h-0.598v-2.904h1.133c0.218 0 0.41 0.040 0.575 0.12 0.166 0.080 0.294 0.194 0.383 0.341 0.089 0.146 0.134 0.313 0.134 0.501 0 0.285-0.098 0.509-0.293 0.674-0.194 0.164-0.463 0.245-0.808 0.245h-0.525zM33.447 25.899h0.535c0.158 0 0.279-0.037 0.361-0.112 0.084-0.075 0.126-0.181 0.126-0.319 0-0.142-0.042-0.257-0.126-0.345s-0.2-0.133-0.347-0.136h-0.548v0.912zM37.233 26.148h-1.149v0.778h1.348v0.481h-1.947v-2.904h1.943v0.485h-1.344v0.692h1.149v0.469zM40.010 24.987h-0.89v2.42h-0.598v-2.42h-0.878v-0.485h2.366v0.485zM42.1 26.148h-1.149v0.778h1.348v0.481h-1.947v-2.904h1.943v0.485h-1.344v0.692h1.149v0.469zM43.726 26.343h-0.477v1.063h-0.598v-2.904h1.079c0.343 0 0.608 0.076 0.794 0.229s0.279 0.369 0.279 0.648c0 0.198-0.043 0.364-0.13 0.497-0.085 0.132-0.215 0.237-0.389 0.315l0.628 1.187v0.028h-0.642l-0.545-1.063zM43.249 25.859h0.483c0.15 0 0.267-0.038 0.349-0.114 0.082-0.077 0.124-0.183 0.124-0.317 0-0.137-0.039-0.245-0.118-0.323-0.077-0.078-0.196-0.118-0.357-0.118h-0.481v0.872zM46.766 26.645c0-0.113-0.040-0.2-0.12-0.259-0.080-0.061-0.223-0.125-0.431-0.191-0.207-0.068-0.372-0.134-0.493-0.2-0.33-0.178-0.495-0.418-0.495-0.72 0-0.157 0.044-0.297 0.132-0.419 0.089-0.124 0.216-0.22 0.381-0.289 0.166-0.069 0.352-0.104 0.559-0.104 0.207 0 0.392 0.038 0.554 0.114 0.162 0.075 0.288 0.18 0.377 0.317 0.090 0.137 0.136 0.293 0.136 0.467h-0.598c0-0.133-0.042-0.236-0.126-0.309-0.084-0.075-0.201-0.112-0.353-0.112-0.146 0-0.26 0.031-0.341 0.094-0.081 0.061-0.122 0.142-0.122 0.243 0 0.094 0.047 0.174 0.142 0.237 0.096 0.064 0.236 0.124 0.421 0.18 0.34 0.102 0.588 0.229 0.744 0.381s0.233 0.34 0.233 0.566c0 0.251-0.095 0.449-0.285 0.592-0.19 0.142-0.446 0.213-0.768 0.213-0.223 0-0.427-0.041-0.61-0.122-0.184-0.082-0.324-0.195-0.421-0.337-0.096-0.142-0.144-0.307-0.144-0.495h0.6c0 0.32 0.192 0.481 0.575 0.481 0.142 0 0.253-0.029 0.333-0.086 0.080-0.058 0.12-0.14 0.12-0.243z"></path>
</symbol>
<symbol id="icon-logo-5" viewBox="0 0 40 32">
<path style="fill: var(--color1, #afb1b8)" d="M3.055 26.742c0.156 0.195 0.24 0.438 0.236 0.688 0.008 0.163-0.021 0.326-0.084 0.476s-0.159 0.285-0.281 0.393c-0.304 0.231-0.681 0.343-1.061 0.317h-1.865v-4.361h1.827c0.361-0.024 0.718 0.078 1.012 0.29 0.118 0.099 0.211 0.224 0.273 0.366s0.089 0.296 0.081 0.45c0.011 0.241-0.065 0.477-0.212 0.667-0.142 0.173-0.338 0.293-0.556 0.341 0.247 0.045 0.471 0.177 0.63 0.373zM0.868 26.084h0.781c0.177 0.013 0.354-0.038 0.496-0.145 0.059-0.053 0.104-0.119 0.133-0.193s0.041-0.153 0.034-0.233c0.006-0.079-0.006-0.158-0.035-0.232s-0.073-0.14-0.13-0.194c-0.147-0.11-0.329-0.162-0.511-0.147h-0.768v1.144zM2.222 27.756c0.063-0.055 0.112-0.123 0.144-0.2s0.046-0.16 0.041-0.243c0.005-0.084-0.010-0.168-0.042-0.246s-0.083-0.147-0.146-0.202c-0.153-0.114-0.341-0.17-0.53-0.158h-0.819v1.199h0.83c0.187 0.011 0.372-0.043 0.524-0.151z"></path>
<path style="fill: var(--color1, #afb1b8)" d="M6.79 28.617l-1.016-1.704h-0.382v1.704h-0.874v-4.361h1.655c0.417-0.029 0.83 0.103 1.152 0.371 0.231 0.237 0.371 0.549 0.393 0.879s-0.073 0.659-0.27 0.925c-0.204 0.235-0.483 0.392-0.789 0.443l1.082 1.743h-0.951zM5.391 26.318h0.715c0.497 0 0.745-0.22 0.745-0.66 0.005-0.090-0.008-0.18-0.040-0.264s-0.080-0.161-0.143-0.226c-0.157-0.131-0.359-0.195-0.562-0.177h-0.724l0.008 1.327z"></path>
<path style="fill: var(--color1, #afb1b8)" d="M11.568 27.739h-1.742l-0.308 0.878h-0.917l1.6-4.312h0.991l1.594 4.312h-0.917l-0.301-0.878zM11.335 27.079l-0.637-1.841-0.637 1.841h1.273z"></path>
<path style="fill: var(--color1, #afb1b8)" d="M17.55 28.617h-0.868l-1.946-2.965v2.965h-0.866v-4.361h0.866l1.946 2.983v-2.983h0.868v4.361z"></path>
<path style="fill: var(--color1, #afb1b8)" d="M22.502 27.573c-0.179 0.329-0.453 0.597-0.785 0.769-0.378 0.192-0.797 0.286-1.22 0.275h-1.545v-4.361h1.545c0.422-0.011 0.841 0.081 1.22 0.268 0.332 0.168 0.606 0.433 0.785 0.761 0.179 0.355 0.272 0.747 0.272 1.144s-0.093 0.789-0.272 1.144zM21.509 27.469c0.248-0.29 0.384-0.659 0.384-1.041s-0.136-0.751-0.384-1.041c-0.299-0.262-0.69-0.396-1.086-0.371h-0.603v2.823h0.603c0.397 0.025 0.787-0.108 1.086-0.371z"></path>
<path style="fill: var(--color1, #afb1b8)" d="M12.111 0c0 0 11.201 4.246 10.963 10.39v10.392c0 0-11.193-4.248-10.959-10.392l-0.004-10.39z"></path>
<path style="fill: var(--color1, #afb1b8)" d="M33.054 18.349c2.115-1.462 4.562-2.367 7.117-2.633v-3.253c-2.943 1.139-5.44 3.204-7.117 5.886z"></path>
<path style="fill: var(--color1, #afb1b8)" d="M31.783 19.329c1.731-3.5 4.733-6.202 8.388-7.548v-9.374c0 0-15.952 6.048-15.614 14.797v14.795c0 0 0.711-0.271 1.829-0.778 0-0.473 0-0.95 0.051-1.429 0.33-4.062 2.253-7.826 5.347-10.464z"></path>
<path style="fill: var(--color1, #afb1b8)" d="M30.265 24.825c0.084-1.026 0.271-2.041 0.558-3.029-1.926 2.279-3.093 5.106-3.335 8.085-0.023 0.281-0.036 0.562-0.043 0.852 0.906-0.437 1.961-0.982 3.068-1.623-0.283-1.409-0.366-2.851-0.248-4.284z"></path>
<path style="fill: var(--color1, #afb1b8)" d="M30.9 24.878c-0.106 1.296-0.040 2.601 0.197 3.879 4.358-2.618 9.255-6.664 9.066-11.553v-0.426c-3.114 0.35-6.027 1.716-8.292 3.89-0.53 1.347-0.858 2.766-0.972 4.21z"></path>
</symbol>
<symbol id="icon-logo-6" viewBox="0 0 62 32">
<path style="fill: var(--color1, #afb1b8)" d="M31.094 15.11c-0.285-0.417-0.422-0.91-0.389-1.406v-2.039c0-0.625 0.129-1.1 0.387-1.425s0.701-0.487 1.33-0.485c0.59 0 1.010 0.138 1.257 0.415 0.27 0.353 0.402 0.784 0.372 1.22v0.479h-1.056v-0.485c0.004-0.159-0.007-0.318-0.031-0.475-0.015-0.108-0.068-0.207-0.151-0.282-0.108-0.081-0.245-0.12-0.383-0.11-0.145-0.010-0.288 0.031-0.402 0.116-0.092 0.083-0.153 0.192-0.175 0.311-0.030 0.166-0.044 0.335-0.042 0.504v2.475c-0.017 0.239 0.030 0.478 0.136 0.695 0.053 0.073 0.125 0.132 0.211 0.168s0.18 0.050 0.273 0.039c0.135 0.011 0.27-0.030 0.374-0.112 0.086-0.081 0.142-0.187 0.157-0.301 0.025-0.164 0.036-0.33 0.033-0.496v-0.502h1.056v0.458c0.030 0.454-0.099 0.904-0.365 1.282-0.243 0.303-0.656 0.454-1.264 0.454s-1.067-0.162-1.327-0.498z"></path>
<path style="fill: var(--color1, #afb1b8)" d="M35.492 15.131c-0.267-0.317-0.4-0.78-0.4-1.392v-2.145c0-0.606 0.133-1.064 0.4-1.375s0.713-0.466 1.338-0.465c0.621 0 1.065 0.155 1.332 0.465 0.267 0.311 0.402 0.77 0.402 1.375v2.145c0 0.606-0.136 1.070-0.407 1.39s-0.713 0.479-1.328 0.479-1.069-0.162-1.338-0.477zM37.322 14.616c0.096-0.199 0.139-0.417 0.127-0.635v-2.626c0.012-0.214-0.031-0.427-0.125-0.622-0.054-0.075-0.128-0.134-0.216-0.171s-0.184-0.049-0.279-0.036c-0.095-0.013-0.192 0-0.279 0.037s-0.163 0.096-0.217 0.171c-0.096 0.194-0.14 0.408-0.127 0.622v2.639c-0.013 0.218 0.030 0.436 0.127 0.635 0.062 0.067 0.138 0.121 0.223 0.157s0.178 0.056 0.272 0.056c0.094 0 0.186-0.019 0.271-0.056s0.161-0.090 0.223-0.157v-0.012z"></path>
<path style="fill: var(--color1, #afb1b8)" d="M39.834 9.816h1.137l0.855 3.957 0.875-3.957h1.107l0.111 5.712h-0.818l-0.087-3.97-0.844 3.97h-0.656l-0.875-3.984-0.081 3.984h-0.827l0.103-5.712z"></path>
<path style="fill: var(--color1, #afb1b8)" d="M45.195 9.816h1.771c1.021 0 1.531 0.541 1.531 1.622 0 1.036-0.537 1.553-1.612 1.551h-0.604v2.539h-1.093l0.007-5.712zM46.708 12.258c0.108 0.013 0.218 0.004 0.322-0.028s0.199-0.083 0.28-0.153c0.125-0.193 0.181-0.419 0.157-0.645 0.006-0.174-0.012-0.348-0.053-0.519-0.016-0.057-0.043-0.11-0.081-0.157s-0.085-0.086-0.138-0.115c-0.152-0.069-0.32-0.1-0.488-0.091h-0.424v1.707h0.424z"></path>
<path style="fill: var(--color1, #afb1b8)" d="M50.074 9.816h1.174l1.205 5.712h-1.019l-0.238-1.317h-1.048l-0.245 1.317h-1.034l1.205-5.712zM51.078 13.55l-0.409-2.398-0.409 2.398h0.818z"></path>
<path style="fill: var(--color1, #afb1b8)" d="M53.426 9.816h0.765l1.465 3.258v-3.258h0.908v5.712h-0.728l-1.474-3.402v3.402h-0.938l0.002-5.712z"></path>
<path style="fill: var(--color1, #afb1b8)" d="M58.69 13.351l-1.218-3.526h1.026l0.744 2.265 0.698-2.265h1.004l-1.203 3.526v2.178h-1.050v-2.178z"></path>
<path style="fill: var(--color1, #afb1b8)" d="M32.782 18.026v0.299h-0.892v2.321h-0.374v-2.321h-0.897v-0.299h2.163z"></path>
<path style="fill: var(--color1, #afb1b8)" d="M35.579 20.646h-0.289c-0.029 0.002-0.058-0.007-0.081-0.025-0.022-0.015-0.039-0.036-0.048-0.060l-0.258-0.622h-1.238l-0.258 0.622c-0.007 0.026-0.021 0.050-0.039 0.071-0.023 0.017-0.052 0.026-0.081 0.025h-0.289l1.093-2.62h0.381l1.107 2.609zM33.769 19.673h1.032l-0.437-1.066c-0.032-0.081-0.059-0.163-0.081-0.247-0.015 0.050-0.028 0.098-0.042 0.139l-0.039 0.11-0.433 1.064z"></path>
<path style="fill: var(--color1, #afb1b8)" d="M37.464 20.389c0.069 0.003 0.137 0.003 0.206 0 0.059-0.006 0.118-0.016 0.175-0.031 0.054-0.012 0.106-0.028 0.157-0.048 0.048-0.019 0.096-0.041 0.147-0.064v-0.589h-0.437c-0.011 0.001-0.022-0.001-0.032-0.005s-0.019-0.009-0.027-0.016c-0.007-0.006-0.013-0.013-0.017-0.021s-0.006-0.017-0.005-0.026v-0.201h0.849v1.004c-0.069 0.047-0.142 0.089-0.219 0.125-0.078 0.036-0.159 0.066-0.243 0.089-0.089 0.025-0.181 0.043-0.273 0.054-0.106 0.011-0.213 0.017-0.319 0.017-0.189 0.002-0.376-0.032-0.551-0.097-0.164-0.063-0.312-0.156-0.437-0.274-0.122-0.119-0.218-0.26-0.282-0.415-0.069-0.174-0.103-0.358-0.101-0.544-0.002-0.187 0.031-0.372 0.098-0.548 0.063-0.155 0.159-0.297 0.282-0.415 0.125-0.118 0.274-0.21 0.437-0.272 0.187-0.067 0.386-0.1 0.586-0.098 0.102-0 0.203 0.008 0.304 0.023 0.089 0.014 0.176 0.036 0.26 0.066 0.077 0.027 0.15 0.062 0.219 0.104 0.067 0.041 0.131 0.087 0.19 0.137l-0.105 0.162c-0.008 0.015-0.021 0.027-0.035 0.036s-0.032 0.014-0.050 0.014c-0.024-0.001-0.048-0.008-0.068-0.021-0.033-0.017-0.068-0.037-0.107-0.062-0.047-0.028-0.096-0.051-0.147-0.071-0.065-0.025-0.133-0.044-0.201-0.058-0.092-0.016-0.185-0.024-0.278-0.023-0.144-0.002-0.288 0.023-0.422 0.073-0.122 0.046-0.231 0.117-0.321 0.207-0.091 0.094-0.16 0.205-0.203 0.326-0.098 0.284-0.098 0.59 0 0.873 0.048 0.123 0.122 0.236 0.219 0.33 0.090 0.090 0.199 0.161 0.319 0.207 0.139 0.045 0.286 0.063 0.433 0.052z"></path>
<path style="fill: var(--color1, #afb1b8)" d="M40.95 20.347h1.194v0.299h-1.559v-2.62h0.374l-0.009 2.321z"></path>
<path style="fill: var(--color1, #afb1b8)" d="M43.386 20.646h-0.374v-2.62h0.374v2.62z"></path>
<path style="fill: var(--color1, #afb1b8)" d="M44.777 18.039c0.022 0.012 0.042 0.028 0.057 0.048l1.599 1.975c-0.002-0.031-0.002-0.062 0-0.093 0-0.029 0-0.058 0-0.085v-1.867h0.326v2.63h-0.188c-0.028 0.002-0.056-0.003-0.081-0.015-0.023-0.013-0.043-0.030-0.059-0.050l-1.596-1.973c0 0.031 0 0.060 0 0.089s0 0.056 0 0.081v1.867h-0.313v-2.62h0.195c0.021 0 0.042 0.004 0.061 0.012z"></path>
<path style="fill: var(--color1, #afb1b8)" d="M49.512 18.026v0.288h-1.325v0.865h1.074v0.278h-1.074v0.894h1.325v0.288h-1.71v-2.614h1.71z"></path>
<path style="fill: var(--color1, #afb1b8)" d="M10.325 1.847l16.605 4.472v15.671l-16.605-4.47v-15.673zM9.26 0.511v17.77l18.733 5.047v-17.768l-18.733-5.049z"></path>
<path style="fill: var(--color1, #afb1b8)" d="M19.3 31.577l-18.735-5.051v-17.768l18.735 5.049v17.771z"></path>
<path style="fill: var(--color1, #afb1b8)" d="M9.571 1.646l16.389 4.416-6.97 6.613-16.391-4.418 6.972-6.611zM9.26 0.511l-8.695 8.247 18.735 5.049 8.693-8.247-18.733-5.049z"></path>
<path style="fill: var(--color1, #afb1b8)" d="M20.354 30.578l7.639-7.247-7.639-2.060v9.307z"></path>
</symbol>
<symbol id="icon-antenna" viewBox="0 0 30 32">
<path d="M29.859 22.098l-8.443-8.505 0.937-4.615c0.242 0.094 0.499 0.144 0.758 0.146h0.006c1.192 0.014 2.17-0.941 2.184-2.133s-0.941-2.17-2.133-2.184c-1.192-0.014-2.17 0.941-2.184 2.133-0.003 0.255 0.039 0.509 0.125 0.749l-4.96 0.605-8.091-8.133c-0.099-0.101-0.235-0.159-0.377-0.16-0.14 0.001-0.274 0.056-0.373 0.155l-1.513 1.504c-0.208 0.208-0.208 0.546 0 0.754l0.814 0.826c-3.153 5.798-2.129 12.978 2.519 17.663 0.043 0.041 0.092 0.074 0.146 0.098-0.034 0.18-0.051 0.364-0.052 0.547v6.187h-6.4c-1.472 0.002-2.665 1.195-2.667 2.667v1.067c0 0.295 0.239 0.533 0.533 0.533h24.533c0.295 0 0.533-0.239 0.533-0.533v-1.067c-0.002-1.472-1.195-2.665-2.667-2.667h-6.4v-2.742c1.003 0.21 2.024 0.317 3.049 0.32 2.458-0.003 4.877-0.615 7.040-1.783l0.818 0.823c0.099 0.101 0.235 0.159 0.377 0.16 0.14-0.001 0.274-0.056 0.373-0.155l1.513-1.504c0.208-0.208 0.208-0.546 0-0.754zM22.366 6.233c0.418-0.415 1.093-0.414 1.508 0.004s0.414 1.093-0.004 1.508c-0.2 0.199-0.47 0.31-0.752 0.31h-0.003c-0.589-0.003-1.064-0.483-1.061-1.072 0.002-0.282 0.115-0.552 0.314-0.751h-0.002zM21.11 9.738l-0.598 2.946-1.175-1.182 1.774-1.763zM20.504 8.836l-1.92 1.909-1.485-1.493 3.405-0.415zM23.090 28.8c0.884 0 1.6 0.716 1.6 1.6v0.533h-23.467v-0.533c0-0.884 0.716-1.6 1.6-1.6h20.267zM15.623 26.667v1.067h-5.333v-1.067h5.333zM10.29 25.6v-4.053c0-1.294 1.196-2.347 2.667-2.347s2.667 1.053 2.667 2.347v4.053h-5.333zM16.69 23.904v-2.357c0-1.882-1.675-3.413-3.733-3.413-1.331-0.020-2.576 0.657-3.281 1.786-4.058-4.274-4.971-10.645-2.279-15.887l18.602 18.708c-2.872 1.461-6.165 1.873-9.309 1.163zM27.979 23.22l-21.057-21.181 0.755-0.752 7.935 7.98c0.004 0 0.006 0.007 0.010 0.010l13.115 13.191-0.757 0.752z"></path>
</symbol>
<symbol id="icon-astronaut" viewBox="0 0 29 32">
<path d="M28.361 13.626c-0.33-0.445-0.814-0.731-1.364-0.809-0.552-0.078-1.097 0.067-1.537 0.404l-1.437 1.102-2.178 1.626-1.558-0.621c2.779-1.247 4.721-4.026 4.721-7.253 0-4.387-3.583-7.956-7.988-7.956s-7.988 3.569-7.988 7.956c0 1.59 0.476 3.069 1.285 4.313l-3.172-0.028c-0.002 0-0.004 0-0.005 0-0.010 0-0.018 0.005-0.027 0.005-0.061 0.002-0.12 0.015-0.178 0.036-0.015 0.005-0.030 0.009-0.044 0.015-0.007 0.003-0.015 0.004-0.022 0.007l-3.71 1.832c-0.001 0-0.001 0-0.001 0.001l-2.173 1.045c-0.024 0.010-0.048 0.024-0.072 0.040-0.866 0.577-1.161 1.709-0.687 2.634 0.253 0.492 0.683 0.854 1.212 1.020 0.204 0.064 0.412 0.095 0.619 0.095 0.332 0 0.662-0.081 0.963-0.242l1.593-0.847 2.598-1.342 1.557-0.009-6.245 6.215c-0.001 0.001-0.001 0.001-0.002 0.001l-1.536 1.53c-0.363 0.361-0.562 0.84-0.562 1.351s0.2 0.991 0.562 1.353c0.373 0.371 0.863 0.557 1.353 0.557s0.98-0.186 1.354-0.557l1.508-1.502 1.998-1.491 1.034 1.029-2.022 2.013c-0.001 0.001-0.001 0.001-0.002 0.001l-1.536 1.53c-0.363 0.361-0.562 0.84-0.562 1.351s0.2 0.991 0.562 1.353c0.373 0.371 0.864 0.557 1.354 0.557s0.981-0.186 1.354-0.557l3.995-3.978c0.001-0.001 0.001-0.001 0.001-0.002l1.159-1.148-0.004-0.004c0.007-0.007 0.018-0.010 0.025-0.018l5.928-6.493 3.983 0.567c0.029 0.004 0.058 0.006 0.086 0.006 0.074 0 0.146-0.018 0.215-0.044 0.020-0.007 0.038-0.017 0.057-0.027 0.022-0.011 0.045-0.017 0.066-0.031l3.688-2.448c0.013-0.009 0.021-0.024 0.034-0.034 0.015-0.012 0.033-0.016 0.046-0.029l1.459-1.367c0.759-0.711 0.864-1.877 0.243-2.71zM2.445 17.769c-0.199 0.107-0.425 0.128-0.641 0.059-0.214-0.067-0.388-0.213-0.49-0.411-0.185-0.36-0.078-0.798 0.246-1.035l1.507-0.725 0.515 1.506-1.138 0.605zM6.458 15.672l-1.777 0.918-0.504-1.473 2.326-1.148-0.045 1.703zM23.785 8.074c0 1.054-0.252 2.048-0.687 2.937l-4.798-2.179c-0.050-0.658-0.392-1.234-0.905-1.593l1.68-5.577c2.729 0.868 4.71 3.413 4.71 6.412zM10.257 8.074c0-3.712 3.034-6.732 6.764-6.732 0.29 0 0.574 0.024 0.855 0.060l-1.643 5.455c-0.022-0.001-0.043-0.007-0.065-0.007-1.185 0-2.149 0.961-2.149 2.142s0.964 2.142 2.149 2.142c0.797 0 1.485-0.44 1.857-1.084l4.432 2.014c-1.233 1.66-3.207 2.743-5.436 2.743-3.73 0-6.764-3.020-6.764-6.732zM17.092 8.992c0 0.506-0.415 0.918-0.925 0.918s-0.925-0.412-0.925-0.918c0-0.506 0.415-0.918 0.925-0.918s0.925 0.412 0.925 0.918zM2.829 26.233c-0.271 0.269-0.71 0.268-0.98 0.001-0.13-0.13-0.202-0.302-0.202-0.485s0.072-0.354 0.202-0.483l1.104-1.1 0.977 0.973-1.1 1.096zM6.517 30.518c-0.271 0.269-0.711 0.269-0.981 0.001-0.13-0.13-0.202-0.302-0.202-0.485s0.072-0.354 0.202-0.483l1.105-1.1 0.977 0.973-1.101 1.096zM10.512 26.537c-0.001 0.001-0.001 0.001-0.002 0.001l-2.025 2.020-0.977-0.973 2.023-2.014c0 0 0 0 0-0.001s0.001-0.001 0.002-0.001c0.046-0.046 0.075-0.101 0.103-0.155 0.008-0.016 0.023-0.029 0.030-0.046 0.019-0.047 0.022-0.098 0.029-0.148 0.004-0.028 0.016-0.054 0.016-0.083 0-0.041-0.015-0.081-0.023-0.121-0.007-0.037-0.007-0.074-0.021-0.11-0.023-0.058-0.063-0.108-0.105-0.158-0.012-0.013-0.016-0.031-0.029-0.043 0 0 0 0-0.001 0s-0.001-0.002-0.001-0.002l-1.844-1.836c-0.020-0.020-0.045-0.028-0.067-0.044-0.032-0.025-0.064-0.048-0.1-0.066-0.035-0.017-0.070-0.028-0.107-0.037-0.039-0.011-0.077-0.020-0.118-0.023-0.037-0.002-0.072 0.001-0.11 0.006-0.041 0.005-0.080 0.010-0.119 0.023-0.039 0.012-0.073 0.031-0.108 0.051-0.023 0.013-0.048 0.017-0.070 0.033l-2.035 1.519-1.034-1.029 2.753-2.738 5.004 4.921-1.064 1.055zM18.337 18.485c-0.018-0.002-0.034 0.004-0.052 0.003-0.045-0.002-0.087 0.001-0.132 0.008-0.035 0.006-0.068 0.013-0.101 0.024-0.039 0.013-0.075 0.032-0.111 0.054-0.034 0.021-0.065 0.043-0.095 0.070-0.015 0.013-0.032 0.019-0.046 0.034l-5.391 5.905-4.967-4.885 3.251-3.234c0.239-0.239 0.241-0.626 0.002-0.866-0.121-0.121-0.279-0.18-0.438-0.179v-0.001l-2.546 0.015 0.032-1.845 3.562 0.031c1.452 1.485 3.476 2.411 5.716 2.411 0.502 0 0.992-0.052 1.468-0.141 0.046 0.037 0.091 0.074 0.149 0.097l2.765 1.102 0.175 0.87 0.204 1.016-3.446-0.49zM22.974 18.69l-0.359-1.788 1.66-1.239 1.086 1.442-2.387 1.585zM27.282 15.441l-0.962 0.901-1.069-1.419 0.954-0.731c0.178-0.137 0.403-0.193 0.623-0.164 0.222 0.031 0.417 0.147 0.551 0.326 0.248 0.335 0.206 0.802-0.098 1.087z"></path>
</symbol>
<symbol id="icon-diagramma" viewBox="0 0 41 32">
<path d="M2.073 31.933h33.168c1.145 0 2.073-0.928 2.073-2.073v-2.764c0-1.145-0.928-2.073-2.073-2.073h-0.691v-17.232l3.925-3.718c0.911 0.449 2.014 0.176 2.61-0.646s0.513-1.955-0.198-2.681-1.841-0.834-2.677-0.256c-0.835 0.578-1.132 1.675-0.703 2.595l-2.957 2.803v-1.594c0-1.145-0.928-2.073-2.073-2.073h-27.64c-1.145 0-2.073 0.928-2.073 2.073v20.73h-0.691c-1.145 0-2.073 0.928-2.073 2.073v2.764c0 1.145 0.928 2.073 2.073 2.073zM39.387 1.529c0.382 0 0.691 0.309 0.691 0.691s-0.309 0.691-0.691 0.691c-0.382 0-0.691-0.309-0.691-0.691s0.309-0.691 0.691-0.691zM4.146 4.293c0-0.382 0.309-0.691 0.691-0.691h27.64c0.382 0 0.691 0.309 0.691 0.691v2.902l-1.382 1.313v-2.833c0-0.382-0.309-0.691-0.691-0.691h-24.876c-0.382 0-0.691 0.309-0.691 0.691v17.275c0 0.382 0.309 0.691 0.691 0.691h24.876c0.382 0 0.691-0.309 0.691-0.691v-12.541l1.382-1.309v15.923h-29.022v-20.73zM10.365 13.276c-0.935-0.003-1.756 0.62-2.004 1.521s0.136 1.857 0.94 2.334c0.804 0.477 1.828 0.357 2.499-0.293l2.402 1.205c0.279 0.14 0.617 0.074 0.825-0.159l5.106-5.744 5.019 3.761c0.269 0.202 0.645 0.18 0.889-0.051l4.362-4.132v10.54h-23.494v-15.893h23.494v3.449l-4.889 4.63-5.061-3.794c-0.287-0.215-0.692-0.175-0.931 0.094l-5.176 5.824-1.935-0.968c0.014-0.083 0.023-0.167 0.026-0.251 0-1.145-0.928-2.073-2.073-2.073zM11.056 15.349c0 0.382-0.309 0.691-0.691 0.691s-0.691-0.309-0.691-0.691c0-0.382 0.309-0.691 0.691-0.691s0.691 0.309 0.691 0.691zM15.202 26.405h6.91v0.691c0 0.382-0.309 0.691-0.691 0.691h-5.528c-0.382 0-0.691-0.309-0.691-0.691v-0.691zM1.382 27.096c0-0.382 0.309-0.691 0.691-0.691h11.747v0.691c0 1.145 0.928 2.073 2.073 2.073h5.528c1.145 0 2.073-0.928 2.073-2.073v-0.691h11.747c0.382 0 0.691 0.309 0.691 0.691v2.764c0 0.382-0.309 0.691-0.691 0.691h-33.168c-0.382 0-0.691-0.309-0.691-0.691v-2.764z"></path>
</symbol>
<symbol id="icon-watch" viewBox="0 0 31 32">
<path d="M30.84 15.301c-0.002-8.452-6.855-15.303-15.308-15.301s-15.303 6.855-15.301 15.308c0.001 6.658 4.307 12.551 10.649 14.576 0.061 0.019 0.124 0.029 0.187 0.029 0.121-0 0.239-0.032 0.342-0.094 0.135-0.080 0.236-0.207 0.283-0.356l3.865-12.25c1.057-0.005 1.909-0.866 1.903-1.923s-0.866-1.909-1.923-1.903c-0.284 0.001-0.565 0.067-0.82 0.191l-5.106-5.107c-0.253-0.245-0.657-0.238-0.902 0.016-0.239 0.247-0.239 0.639 0 0.886l5.103 5.109c-0.392 0.799-0.168 1.764 0.536 2.309l-3.683 11.673c-7.278-2.681-11.004-10.754-8.323-18.032s10.754-11.004 18.032-8.323 11.004 10.754 8.323 18.032c-1.31 3.556-4.001 6.431-7.462 7.973l-0.398-1.874c-0.073-0.344-0.411-0.565-0.756-0.492-0.109 0.023-0.209 0.074-0.292 0.148l-3.837 3.426c-0.263 0.234-0.287 0.637-0.052 0.9 0.076 0.085 0.174 0.149 0.283 0.184l4.899 1.563c0.335 0.108 0.694-0.077 0.802-0.412 0.034-0.106 0.040-0.219 0.017-0.328l-0.391-1.839c5.664-2.388 9.342-7.942 9.329-14.089zM15.535 14.664c0.352 0 0.638 0.286 0.638 0.638s-0.286 0.638-0.638 0.638c-0.352 0-0.638-0.285-0.638-0.638s0.285-0.638 0.638-0.638zM17.635 29.528l2.184-1.948 0.603 2.84-2.787-0.892z"></path>
</symbol>
<symbol id="icon-facebook" viewBox="0 0 32 32">
<path style="fill: var(--color1, #afb1b8)" d="M20.529 5.313h2.921v-5.088c-0.504-0.069-2.237-0.225-4.256-0.225-4.212 0-7.097 2.649-7.097 7.519v4.481h-4.648v5.688h4.648v14.312h5.699v-14.311h4.46l0.708-5.688h-5.169v-3.919c0.001-1.644 0.444-2.769 2.735-2.769z"></path>
</symbol>
<symbol id="icon-icon-send" viewBox="0 0 32 32">
<p style="fill: var(--color3, #fff)" d="M32 0l-32 18 10.227 3.788 15.773-14.788-11.998 16.186 0.010 0.004-0.012-0.004v8.814l5.735-6.691 7.265 2.691 5-28z"></path>
</symbol>
<symbol id="icon-instagram" viewBox="0 0 32 32">
<path style="fill: var(--color1, #afb1b8)" d="M31.969 9.408c-0.075-1.7-0.35-2.869-0.744-3.882-0.406-1.075-1.032-2.038-1.851-2.838-0.8-0.813-1.769-1.444-2.832-1.844-1.019-0.394-2.182-0.669-3.882-0.744-1.713-0.081-2.257-0.1-6.601-0.1s-4.888 0.019-6.595 0.094c-1.7 0.075-2.869 0.35-3.882 0.744-1.075 0.406-2.038 1.031-2.838 1.85-0.813 0.8-1.444 1.769-1.844 2.832-0.394 1.019-0.669 2.182-0.744 3.882-0.081 1.713-0.1 2.257-0.1 6.601s0.019 4.888 0.094 6.595c0.075 1.7 0.35 2.869 0.744 3.882 0.406 1.075 1.038 2.038 1.85 2.838 0.8 0.813 1.769 1.444 2.832 1.844 1.019 0.394 2.182 0.669 3.882 0.744 1.706 0.075 2.25 0.094 6.595 0.094s4.888-0.019 6.595-0.094c1.7-0.075 2.869-0.35 3.882-0.744 2.151-0.832 3.851-2.532 4.682-4.682 0.394-1.019 0.669-2.182 0.744-3.882 0.075-1.707 0.094-2.251 0.094-6.595s-0.006-4.888-0.081-6.595zM29.087 22.473c-0.069 1.563-0.331 2.407-0.55 2.969-0.538 1.394-1.644 2.5-3.038 3.038-0.563 0.219-1.413 0.481-2.969 0.55-1.688 0.075-2.194 0.094-6.464 0.094s-4.782-0.019-6.464-0.094c-1.563-0.069-2.407-0.331-2.969-0.55-0.694-0.256-1.325-0.663-1.838-1.194-0.531-0.519-0.938-1.144-1.194-1.838-0.219-0.563-0.481-1.413-0.55-2.969-0.075-1.688-0.094-2.194-0.094-6.464s0.019-4.782 0.094-6.464c0.069-1.563 0.331-2.407 0.55-2.969 0.256-0.694 0.663-1.325 1.2-1.838 0.519-0.531 1.144-0.938 1.838-1.194 0.563-0.219 1.413-0.481 2.969-0.55 1.688-0.075 2.194-0.094 6.464-0.094 4.276 0 4.782 0.019 6.464 0.094 1.563 0.069 2.407 0.331 2.969 0.55 0.694 0.256 1.325 0.662 1.838 1.194 0.531 0.519 0.938 1.144 1.194 1.838 0.219 0.563 0.481 1.413 0.55 2.969 0.075 1.688 0.094 2.194 0.094 6.464s-0.019 4.77-0.094 6.458z"></path>
<path style="fill: var(--color1, #afb1b8)" d="M16.059 7.783c-4.538 0-8.22 3.682-8.22 8.22s3.682 8.22 8.22 8.22c4.539 0 8.22-3.682 8.22-8.22s-3.682-8.22-8.22-8.22zM16.059 21.335c-2.944 0-5.332-2.388-5.332-5.332s2.388-5.332 5.332-5.332c2.944 0 5.332 2.388 5.332 5.332s-2.388 5.332-5.332 5.332z"></path>
<path style="fill: var(--color1, #afb1b8)" d="M26.524 7.458c0 1.060-0.859 1.919-1.919 1.919s-1.919-0.859-1.919-1.919c0-1.060 0.859-1.919 1.919-1.919s1.919 0.859 1.919 1.919z"></path>
</symbol>
<symbol id="icon-linkedin" viewBox="0 0 32 32">
<path style="fill: var(--color1, #afb1b8)" d="M31.992 32v-0.001h0.008v-11.736c0-5.741-1.236-10.164-7.948-10.164-3.227 0-5.392 1.771-6.276 3.449h-0.093v-2.913h-6.364v21.364h6.627v-10.579c0-2.785 0.528-5.479 3.977-5.479 3.399 0 3.449 3.179 3.449 5.657v10.401h6.62z"></path>
<path style="fill: var(--color1, #afb1b8)" d="M0.528 10.636h6.635v21.364h-6.635v-21.364z"></path>
<path style="fill: var(--color1, #afb1b8)" d="M3.843 0c-2.121 0-3.843 1.721-3.843 3.843s1.721 3.879 3.843 3.879c2.121 0 3.843-1.757 3.843-3.879-0.001-2.121-1.723-3.843-3.843-3.843v0z"></path>
</symbol>
<symbol id="icon-mail" viewBox="0 0 32 32">
<path style="fill: var(--color2, #2196f3)" d="M29 4h-26c-1.654 0-3 1.256-3 2.801v16.803c0 1.544 1.346 2.801 3 2.801h26c1.654 0 3-1.256 3-2.801v-16.803c0-1.544-1.346-2.801-3-2.801zM29 5.867c0.136 0 0.265 0.026 0.383 0.072l-13.383 10.828-13.383-10.828c0.118-0.046 0.247-0.072 0.383-0.072h26zM29 24.537h-26c-0.552 0-1-0.418-1-0.934v-15.692l13.345 10.796c0.188 0.152 0.422 0.228 0.655 0.228s0.467-0.076 0.655-0.228l13.345-10.796v15.692c0 0.515-0.448 0.934-1 0.934z"></path>
</symbol>
<symbol id="icon-phone" viewBox="0 0 32 32">
<path style="fill: var(--color4, #757575)" d="M23.467 0h-14.933c-1.765 0-3.2 1.34-3.2 2.987v25.889c0 1.647 1.435 2.987 3.2 2.987h14.933c1.765 0 3.2-1.34 3.2-2.987v-25.889c0-1.647-1.435-2.987-3.2-2.987zM8.533 1.991h14.933c0.589 0 1.067 0.446 1.067 0.996v20.91h-17.067v-20.91c0-0.549 0.478-0.996 1.067-0.996zM23.467 29.872h-14.933c-0.589 0-1.067-0.446-1.067-0.996v-2.987h17.067v2.987c0 0.55-0.478 0.996-1.067 0.996z"></path>
</symbol>
<symbol id="icon-twitter" viewBox="0 0 32 32">
<path style="fill: var(--color1, #afb1b8)" d="M32 6.078c-1.19 0.522-2.458 0.868-3.78 1.036 1.36-0.812 2.398-2.088 2.886-3.626-1.268 0.756-2.668 1.29-4.16 1.588-1.204-1.282-2.92-2.076-4.792-2.076-3.632 0-6.556 2.948-6.556 6.562 0 0.52 0.044 1.020 0.152 1.496-5.454-0.266-10.28-2.88-13.522-6.862-0.566 0.982-0.898 2.106-0.898 3.316 0 2.272 1.17 4.286 2.914 5.452-1.054-0.020-2.088-0.326-2.964-0.808 0 0.020 0 0.046 0 0.072 0 3.188 2.274 5.836 5.256 6.446-0.534 0.146-1.116 0.216-1.72 0.216-0.42 0-0.844-0.024-1.242-0.112 0.85 2.598 3.262 4.508 6.13 4.57-2.232 1.746-5.066 2.798-8.134 2.798-0.538 0-1.054-0.024-1.57-0.090 2.906 1.874 6.35 2.944 10.064 2.944 12.072 0 18.672-10 18.672-18.668 0-0.29-0.010-0.57-0.024-0.848 1.302-0.924 2.396-2.078 3.288-3.406z"></path>
</symbol>
</defs>
</svg>
